HIERARCHY
ROOT Hips
{
    OFFSET 0.000000 0.000000 0.000000
    CHANNELS 6 Xposition Yposition Zposition Zrotation Xrotation Yrotation
    JOINT Spine
    {
        OFFSET -0.000000 7.236184 0.000000
        CHANNELS 3 Zrotation Xrotation Yrotation
        JOINT Spine1
        {
            OFFSET -0.000000 20.420147 0.000000
            CHANNELS 3 Zrotation Xrotation Yrotation
            JOINT Neck
            {
                OFFSET -0.000000 20.336288 1.848754
                CHANNELS 3 Zrotation Xrotation Yrotation
                JOINT Head
                {
                    OFFSET -0.000000 12.354461 -1.764923
                    CHANNELS 3 Zrotation Xrotation Yrotation
                    End Site
                    {
                        OFFSET -0.000000 22.061537 0.000000
                    }
                }
            }
            JOINT LeftShoulder
            {
                OFFSET 3.573296 18.396038 -0.314103
                CHANNELS 3 Zrotation Xrotation Yrotation
                JOINT LeftArm
                {
                    OFFSET 10.880760 0.000000 0.000000
                    CHANNELS 3 Zrotation Xrotation Yrotation
                    JOINT LeftForeArm
                    {
                        OFFSET 27.185530 0.000000 0.000000
                        CHANNELS 3 Zrotation Xrotation Yrotation
                        JOINT LeftHand
                        {
                            OFFSET 27.825975 0.000000 0.000000
                            CHANNELS 3 Zrotation Xrotation Yrotation
                            End Site
                            {
                                OFFSET 13.236923 0.000000 0.000000
                            }
                        }
                    }
                }
            }
            JOINT RightShoulder
            {
                OFFSET -3.474926 18.396038 -0.314103
                CHANNELS 3 Zrotation Xrotation Yrotation
                JOINT RightArm
                {
                    OFFSET -10.880760 0.000000 0.000000
                    CHANNELS 3 Zrotation Xrotation Yrotation
                    JOINT RightForeArm
                    {
                        OFFSET -27.185530 0.000000 0.000000
                        CHANNELS 3 Zrotation Xrotation Yrotation
                        JOINT RightHand
                        {
                            OFFSET -27.825975 0.000000 0.000000
                            CHANNELS 3 Zrotation Xrotation Yrotation
                            End Site
                            {
                                OFFSET -13.236923 0.000000 0.000000
                            }
                        }
                    }
                }
            }
        }
    }
    JOINT LeftUpLeg
    {
        OFFSET 8.824615 0.000000 0.000000
        CHANNELS 3 Zrotation Xrotation Yrotation
        JOINT LeftLeg
        {
            OFFSET -0.000000 -35.111282 0.000000
            CHANNELS 3 Zrotation Xrotation Yrotation
            JOINT LeftFoot
            {
                OFFSET -0.000000 -42.324711 0.000000
                CHANNELS 3 Zrotation Xrotation Yrotation
                JOINT LeftToeBase
                {
                    OFFSET -0.000000 -5.735999 13.236923
                    CHANNELS 3 Zrotation Xrotation Yrotation
                    End Site
                    {
                        OFFSET -0.000000 0.000000 3.529846
                    }
                }
            }
        }
    }
    JOINT RightUpLeg
    {
        OFFSET -8.824615 0.000000 0.000000
        CHANNELS 3 Zrotation Xrotation Yrotation
        JOINT RightLeg
        {
            OFFSET -0.000000 -35.111282 0.000000
            CHANNELS 3 Zrotation Xrotation Yrotation
            JOINT RightFoot
            {
                OFFSET -0.000000 -42.324711 0.000000
                CHANNELS 3 Zrotation Xrotation Yrotation
                JOINT RightToeBase
                {
                    OFFSET -0.000000 -5.735999 13.236923
                    CHANNELS 3 Zrotation Xrotation Yrotation
                    End Site
                    {
                        OFFSET -0.000000 0.000000 3.529846
                    }
                }
            }
        }
    }
}
MOTION
Frames:    10
Frame Time:    0.008333
13.315537    86.646721    95.975494    23.482498    31.292019    -107.600830    1.241437    -3.422493    -0.551878    13.973283    9.533775    -1.760024    4.559350    14.951102    -25.744137    25.689209    -3.885014    -22.602192    7.895558    4.880519    -15.530151    -19.827873    15.433570    -68.701714    32.499046    -26.927660    -97.749542    58.635204    -0.570735    -21.678492    8.188120    13.457843    -1.717913    41.109360    -0.408160    27.818518    -9.592075    -23.534588    0.684157    -35.054325    -22.249561    -4.232874    36.170639    -35.827694    11.621140    4.338762    32.308243    1.058640    5.094399    -11.722928    -9.754587    0.386883    0.418575    -0.428524    -88.805916    -73.285614    -80.185493    168.422348    52.210121    -148.811264    0.112675    -5.750534    -14.529363    0.532000    -5.433517    -0.579911
13.017066    86.680611    96.301437    22.980110    30.074585    -108.339279    1.148504    -3.574407    -0.694878    13.612513    9.394179    -1.854547    4.409156    14.738938    -25.372965    24.801510    -3.664756    -22.411547    7.864473    4.962269    -15.391667    -20.008429    15.736570    -68.395851    32.866467    -26.599207    -96.428963    58.671234    -0.678739    -21.646994    8.139388    13.403769    -1.757025    40.931011    0.385157    27.881315    -9.600568    -23.593548    1.257541    -34.810810    -22.285776    -4.191006    34.456566    -34.558033    10.451758    3.928159    31.613153    1.118327    5.081806    -11.689279    -9.530764    0.404187    0.496699    -0.447628    -85.756027    -74.397186    -78.271713    167.817764    53.430466    -148.293625    0.180180    -5.666682    -15.036630    0.500787    -4.574149    -0.545184
12.695114    86.694572    96.630150    22.450161    28.868174    -109.066063    1.051277    -3.746258    -0.844308    13.281682    9.254529    -1.958492    4.279358    14.512310    -24.990990    23.873930    -3.449208    -22.212221    7.834702    5.047656    -15.268364    -20.247326    16.049006    -68.044472    33.197708    -26.214163    -95.075768    58.704243    -0.793373    -21.618435    8.091179    13.341935    -1.824333    40.750599    1.177490    27.948326    -9.593991    -23.642181    1.875175    -34.551086    -22.311384    -4.139858    32.825760    -33.288082    9.514680    3.523859    30.923746    1.237515    5.069787    -11.625010    -9.339152    0.413901    0.564287    -0.458331    -81.719795    -75.342804    -75.201035    167.121445    54.706432    -147.610168    0.250895    -5.607556    -15.616937    0.468282    -3.929714    -0.509312
12.349182    86.687973    96.960831    21.898350    27.668928    -109.791786    0.953111    -3.943627    -1.001188    12.975177    9.114168    -2.072673    4.169304    14.271291    -24.595026    22.907656    -3.236226    -22.001028    7.805930    5.137832    -15.154923    -20.537231    16.372704    -67.641113    33.495724    -25.776276    -93.680939    58.732025    -0.917081    -21.593313    8.041288    13.272464    -1.919881    40.570934    1.975709    28.026636    -9.568356    -23.676712    2.537477    -34.275940    -22.323294    -4.077282    31.272816    -32.021919    8.827862    3.133389    30.241055    1.422732    5.063241    -11.526937    -9.193947    0.416763    0.600715    -0.461470    -76.675468    -76.087326    -70.964081    166.322937    56.000851    -146.739548    0.306879    -5.567368    -16.275297    0.433161    -3.805489    -0.471028
11.979694    86.660133    97.292114    21.330376    26.474688    -110.524170    0.856636    -4.170541    -1.166253    12.687534    8.971572    -2.196962    4.078426    14.016951    -24.182211    21.904493    -3.024010    -21.774977    7.777650    5.235874    -15.046077    -20.868608    16.707447    -67.180519    33.763275    -25.289709    -92.238060    58.756996    -1.052476    -21.571846    7.987345    13.194403    -2.042583    40.394573    2.787384    28.121912    -9.521255    -23.694178    3.241673    -33.987701    -22.319120    -4.002760    29.791100    -30.767693    8.406049    2.766787    29.569872    1.654502    5.065490    -11.394294    -9.102463    0.411092    0.590706    -0.455199    -70.722366    -76.589699    -65.672096    165.416931    57.280853    -145.680511    0.330283    -5.535309    -17.004673    0.419923    -3.733186    -0.456584
11.593345    86.611343    97.617889    20.759689    25.300127    -111.258804    0.764937    -4.426103    -1.337255    12.417283    8.827037    -2.329008    4.004548    13.755720    -23.756111    20.885237    -2.814595    -21.533817    7.749660    5.345210    -14.936447    -21.225657    17.046412    -66.668678    34.000507    -24.765495    -90.761932    58.779243    -1.198143    -21.555243    7.927500    13.109024    -2.187396    40.226547    3.606323    28.237551    -9.452747    -23.692507    3.972465    -33.693806    -22.297592    -3.917439    28.389687    -29.553293    8.254397    2.439675    28.928322    1.893971    5.079783    -11.231671    -9.063830    0.393504    0.525277    -0.435774    -64.209511    -76.813370    -59.679745    164.417557    58.502636    -144.481369    0.312108    -5.501478    -17.765560    0.430263    -3.719520    -0.467818
11.186555    86.541405    97.941650    20.182240    24.125507    -112.011421    0.677989    -4.714555    -1.516193    12.154349    8.676972    -2.469760    3.943405    13.486979    -23.308134    19.841194    -2.605402    -21.270363    7.720759    5.472392    -14.817103    -21.602810    17.390953    -66.099899    34.213612    -24.198231    -89.227264    58.800529    -1.356098    -21.544788    7.859025    13.016306    -2.349351    40.064960    4.449373    28.376657    -9.363419    -23.672396    4.735015    -33.393898    -22.259197    -3.821834    27.031485    -28.372053    8.352295    2.156907    28.318098    2.105558    5.109653    -11.041666    -9.065355    0.359588    0.401641    -0.398303    -57.424667    -76.749702    -53.300438    163.317200    59.669323    -143.201202    0.258804    -5.458377    -18.505959    0.457125    -3.755594    -0.497051
10.764643    86.451462    98.259560    19.606270    22.958000    -112.781395    0.596837    -5.033564    -1.699855    11.896860    8.521167    -2.615661    3.892153    13.216222    -22.840252    18.788136    -2.400265    -20.983427    7.691052    5.622168    -14.682445    -21.989342    17.733494    -65.483185    34.399994    -23.590988    -87.643593    58.821194    -1.524192    -21.543917    7.781669    12.919736    -2.521120    39.910000    5.313403    28.538704    -9.256742    -23.635553    5.519463    -33.094425    -22.205460    -3.719344    25.710800    -27.244881    8.668817    1.927976    27.757149    2.262687    5.155821    -10.831871    -9.092843    0.304917    0.222187    -0.337855    -50.819534    -76.408012    -46.998901    162.130692    60.765377    -141.956848    0.187983    -5.403121    -19.127386    0.489400    -3.825612    -0.532200
10.327024    86.342224    98.572716    19.030073    21.788074    -113.579613    0.520424    -5.384151    -1.886863    11.641427    8.359567    -2.765108    3.846003    12.944363    -22.348072    17.728239    -2.201742    -20.667625    7.659448    5.797112    -14.525919    -22.383875    18.073023    -64.818314    34.557693    -22.936184    -86.001198    58.841496    -1.701222    -21.555372    7.694213    12.821206    -2.696507    39.758514    6.206131    28.723568    -9.136147    -23.584469    6.328776    -32.797165    -22.138275    -3.611787    24.401855    -26.173876    9.157788    1.754074    27.253876    2.365303    5.214951    -10.607933    -9.134601    0.227185    -0.010564    -0.251832    -44.666096    -75.816200    -41.067200    160.860626    61.799717    -140.834488    0.116454    -5.334538    -19.554708    0.518995    -3.912644    -0.564454
9.876447    86.215378    98.879593    18.455111    20.617214    -114.411011    0.448141    -5.763702    -2.073529    11.388946    8.195151    -2.914727    3.799794    12.674495    -21.831535    16.674768    -2.015208    -20.320143    7.624571    5.995127    -14.344455    -22.786795    18.406866    -64.107384    34.679028    -22.229170    -84.306923    58.860931    -1.884000    -21.582581    7.596962    12.723858    -2.868549    39.608231    7.124168    28.929815    -9.006537    -23.520817    7.160802    -32.504955    -22.058977    -3.500801    23.092594    -25.167629    9.758440    1.633410    26.818190    2.435921    5.278589    -10.376417    -9.183905    0.128169    -0.291980    -0.142146    -39.153858    -75.014763    -35.712231    159.528030    62.774185    -139.869156    0.051723    -5.255460    -19.774271    0.542841    -4.003344    -0.590469
